<?xml version="1.0" standalone="no"?>
<!DOCTYPE svg PUBLIC "-//W3C//DTD SVG 1.1//EN" "http://www.w3.org/Graphics/SVG/1.1/DTD/svg11.dtd">
<svg width="133" height="375" viewBox="-53 -375 133 375" xmlns="http://www.w3.org/2000/svg" version="1.1">
<title>OpenSCAD Model</title>
<path d="
M -6,-108 L -6,-107.912 L -7.41843,-107.74 L -8.99405,-106.652 L -9.88377,-104.957 L -9.88377,-103.043
 L -8.99405,-101.348 L -7.41843,-100.26 L -6,-100.088 L -6,-100 L 0,-100 L 0,-0
 L 60,-0 L 60,-200 L 63.3333,-200 L 63.3333,-200.091 L 65.0755,-200.091 L 68.4836,-200.816
 L 71.6667,-202.233 L 74.4855,-204.281 L 76.8169,-206.87 L 78.5591,-209.888 L 79.6358,-213.201 L 80,-216.667
 L 80,-266.667 L 79.8467,-268.125 L 80,-269.583 L 80,-347.083 L 79.7542,-349.422 L 79.0274,-351.659
 L 77.8514,-353.696 L 76.2777,-355.444 L 74.375,-356.826 L 72.2264,-357.783 L 69.9259,-358.272 L 67.5741,-358.272
 L 65.2735,-357.783 L 63.125,-356.826 L 61.2223,-355.444 L 59.6485,-353.696 L 58.4726,-351.659 L 57.7458,-349.422
 L 57.5,-347.083 L 57.5,-283.333 L 54.1667,-283.333 L 54.1667,-359.583 L 53.9208,-361.922 L 53.194,-364.159
 L 52.0181,-366.196 L 50.4444,-367.944 L 48.5417,-369.326 L 46.3931,-370.283 L 44.0926,-370.772 L 41.7407,-370.772
 L 39.4402,-370.283 L 37.2917,-369.326 L 35.3889,-367.944 L 33.8152,-366.196 L 32.6393,-364.159 L 31.9125,-361.922
 L 31.6667,-359.583 L 31.6667,-283.333 L 28.3333,-283.333 L 28.3333,-363.75 L 28.0875,-366.089 L 27.3607,-368.326
 L 26.1848,-370.363 L 24.611,-372.11 L 22.7083,-373.493 L 20.5598,-374.449 L 18.2593,-374.938 L 15.9074,-374.938
 L 13.6069,-374.449 L 11.4583,-373.493 L 9.5556,-372.11 L 7.98187,-370.363 L 6.80594,-368.326 L 6.07916,-366.089
 L 5.83333,-363.75 L 5.83333,-283.333 L 2.5,-283.333 L 2.5,-355.417 L 2.25415,-357.756 L 1.52737,-359.992
 L 0.35144,-362.029 L -1.22229,-363.777 L -3.125,-365.159 L -5.27356,-366.116 L -7.57407,-366.605 L -9.92595,-366.605
 L -12.2265,-366.116 L -14.375,-365.159 L -16.2777,-363.777 L -17.8515,-362.029 L -19.0274,-359.992 L -19.7542,-357.756
 L -20,-355.417 L -20,-272.364 L -28.522,-295.778 L -29.553,-297.892 L -31.0009,-299.745 L -32.8026,-301.257
 L -34.8792,-302.361 L -37.14,-303.009 L -39.4861,-303.174 L -41.8151,-302.846 L -42.9202,-302.444 L -42.9412,-302.502
 L -45.0555,-301.732 L -45.0345,-301.674 L -46.1395,-301.272 L -48.134,-300.026 L -49.8258,-298.392 L -51.141,-296.442
 L -52.022,-294.262 L -52.4304,-291.946 L -52.3483,-289.595 L -51.7794,-287.313 L -23.8477,-210.572 L -22.8167,-208.458
 L -21.3688,-206.604 L -19.5671,-205.093 L -17.4905,-203.988 L -15.2297,-203.34 L -12.9735,-203.182 L -11.6667,-202.233
 L -8.48363,-200.816 L -5.07549,-200.091 L -3.33334,-200.091 L -3.33334,-200 L 0,-200 L 0,-108
 z
M -6.1568,-102.508 L -6.46353,-102.573 L -6.75002,-102.701 L -7.00371,-102.885 L -7.21353,-103.118 L -7.37033,-103.39
 L -7.46722,-103.688 L -7.5,-104 L -7.46722,-104.312 L -7.37033,-104.61 L -7.21353,-104.882 L -7.00371,-105.115
 L -6.75,-105.299 L -6.46353,-105.427 L -6.1568,-105.492 L -5.84322,-105.492 L -5.53648,-105.427 L -5.25,-105.299
 L -4.99631,-105.115 L -4.78648,-104.882 L -4.62968,-104.61 L -4.53279,-104.312 L -4.5,-104 L -4.53279,-103.688
 L -4.62968,-103.39 L -4.78648,-103.118 L -4.99631,-102.885 L -5.25,-102.701 L -5.53648,-102.573 L -5.84322,-102.508
 z
M 11.7909,-8.01096 L 11.382,-8.09789 L 11,-8.26794 L 10.6617,-8.5137 L 10.382,-8.82442 L 10.1729,-9.18652
 L 10.0437,-9.58417 L 10,-10 L 10.0437,-10.4158 L 10.1729,-10.8135 L 10.382,-11.1756 L 10.6617,-11.4863
 L 11,-11.732 L 11.382,-11.9021 L 11.7909,-11.989 L 12.209,-11.989 L 12.618,-11.9021 L 13,-11.732
 L 13.3383,-11.4863 L 13.618,-11.1756 L 13.8271,-10.8135 L 13.9563,-10.4158 L 14,-10 L 13.9563,-9.58417
 L 13.8271,-9.18652 L 13.618,-8.82442 L 13.3383,-8.5137 L 13,-8.26794 L 12.618,-8.09789 L 12.209,-8.01096
 z
M 29.7909,-8.01096 L 29.382,-8.09789 L 29,-8.26794 L 28.6617,-8.5137 L 28.382,-8.82442 L 28.1729,-9.18652
 L 28.0437,-9.58417 L 28,-10 L 28.0437,-10.4158 L 28.1729,-10.8135 L 28.382,-11.1756 L 28.6617,-11.4863
 L 29,-11.732 L 29.382,-11.9021 L 29.7909,-11.989 L 30.209,-11.989 L 30.618,-11.9021 L 31,-11.732
 L 31.3383,-11.4863 L 31.618,-11.1756 L 31.8271,-10.8135 L 31.9563,-10.4158 L 32,-10 L 31.9563,-9.58417
 L 31.8271,-9.18652 L 31.618,-8.82442 L 31.3383,-8.5137 L 31,-8.26794 L 30.618,-8.09789 L 30.209,-8.01096
 z
M 47.7909,-8.01096 L 47.382,-8.09789 L 47,-8.26794 L 46.6617,-8.5137 L 46.382,-8.82442 L 46.1729,-9.18652
 L 46.0437,-9.58417 L 46,-10 L 46.0437,-10.4158 L 46.1729,-10.8135 L 46.382,-11.1756 L 46.6617,-11.4863
 L 47,-11.732 L 47.382,-11.9021 L 47.7909,-11.989 L 48.209,-11.989 L 48.618,-11.9021 L 49,-11.732
 L 49.3383,-11.4863 L 49.618,-11.1756 L 49.8271,-10.8135 L 49.9563,-10.4158 L 50,-10 L 49.9563,-9.58417
 L 49.8271,-9.18652 L 49.618,-8.82442 L 49.3383,-8.5137 L 49,-8.26794 L 48.618,-8.09789 L 48.209,-8.01096
 z
" stroke="black" fill="lightgray" stroke-width="0.5"/></svg>
