<?xml version="1.0" standalone="no"?>
<!DOCTYPE svg PUBLIC "-//W3C//DTD SVG 1.1//EN" "http://www.w3.org/Graphics/SVG/1.1/DTD/svg11.dtd">
<svg width="80" height="235" viewBox="-30 -235 80 235" xmlns="http://www.w3.org/2000/svg" version="1.1">
<title>OpenSCAD Model</title>
<path d="
M -6,-108 L -6,-107.912 L -7.41843,-107.74 L -8.99405,-106.652 L -9.88377,-104.957 L -9.88377,-103.043
 L -8.99405,-101.348 L -7.41843,-100.26 L -6,-100.088 L -6,-100 L 0,-100 L 0,-0
 L 40,-0 L 40,-130.055 L 41.0453,-130.055 L 43.0902,-130.489 L 45,-131.34 L 46.6913,-132.569
 L 48.0902,-134.122 L 49.1355,-135.933 L 49.7815,-137.921 L 50,-140 L 50,-170 L 49.8937,-171.011
 L 50,-171.75 L 50,-218.25 L 49.7266,-220.152 L 48.9285,-221.899 L 47.6703,-223.351 L 46.054,-224.39
 L 44.2106,-224.931 L 42.2894,-224.931 L 40.4459,-224.39 L 38.8297,-223.351 L 37.5715,-221.899 L 36.7734,-220.152
 L 36.5,-218.25 L 36.5,-180 L 34.5,-180 L 34.5,-225.75 L 34.2266,-227.652 L 33.4285,-229.399
 L 32.1703,-230.851 L 30.554,-231.89 L 28.7106,-232.431 L 26.7894,-232.431 L 24.9459,-231.89 L 23.3297,-230.851
 L 22.0715,-229.399 L 21.2734,-227.652 L 21,-225.75 L 21,-180 L 19,-180 L 19,-228.25
 L 18.7266,-230.152 L 17.9285,-231.899 L 16.6703,-233.351 L 15.054,-234.39 L 13.2106,-234.931 L 11.2894,-234.931
 L 9.44594,-234.39 L 7.82968,-233.351 L 6.57153,-231.899 L 5.77342,-230.152 L 5.5,-228.25 L 5.5,-180
 L 3.5,-180 L 3.5,-223.25 L 3.22656,-225.152 L 2.42845,-226.899 L 1.1703,-228.351 L -0.445953,-229.39
 L -2.28938,-229.931 L -4.21063,-229.931 L -6.05406,-229.39 L -7.67032,-228.351 L -8.92847,-226.899 L -9.72658,-225.152
 L -10,-223.25 L -10,-173.418 L -15.1132,-187.467 L -16.0205,-189.16 L -17.3682,-190.53 L -19.0471,-191.464
 L -20.9212,-191.887 L -22.8385,-191.765 L -23.7413,-191.437 L -23.7648,-191.501 L -25.0333,-191.039 L -25.0098,-190.975
 L -25.9125,-190.646 L -27.4597,-189.507 L -28.6232,-187.978 L -29.3088,-186.184 L -29.4611,-184.268 L -29.0676,-182.388
 L -12.3086,-136.343 L -11.4013,-134.649 L -10.0536,-133.28 L -8.37469,-132.346 L -6.50064,-131.923 L -5.85864,-131.964
 L -5.00002,-131.34 L -3.09018,-130.489 L -1.04529,-130.055 L 0,-130.055 L 0,-108 z
M -7.21353,-103.118 L -7.21353,-104.882 L -5.53648,-105.427 L -4.5,-104 L -5.53648,-102.573 z
M 8.23222,-8.23222 L 7.5,-10 L 8.23222,-11.7678 L 10,-12.5 L 11.7678,-11.7678 L 12.5,-10
 L 11.7678,-8.23222 L 10,-7.5 z
M 28.2322,-8.23222 L 27.5,-10 L 28.2322,-11.7678 L 30,-12.5 L 31.7678,-11.7678 L 32.5,-10
 L 31.7678,-8.23222 L 30,-7.5 z
" stroke="black" fill="lightgray" stroke-width="0.5"/></svg>
